<svg xmlns="http://www.w3.org/2000/svg" viewBox="5193.44 146 14 14.073">
  <defs>
    <style>
      .cls-1 {
        fill: #03a9f4;
      }
    </style>
  </defs>
  <path id="Path_76" data-name="Path 76" class="cls-1" d="M14.925,7.685v4.863A1.527,1.527,0,0,1,13.4,14.073H2.47A1.527,1.527,0,0,1,.944,12.548V1.63A1.527,1.527,0,0,1,2.47.1H7.345A1.694,1.694,0,0,0,6.87,1.124h-4.4a.506.506,0,0,0-.506.506V12.548a.506.506,0,0,0,.506.506H13.4a.506.506,0,0,0,.506-.506V8.16A1.685,1.685,0,0,0,14.925,7.685ZM9,1.529h3.333l-5.4,5.4A.765.765,0,0,0,8.019,8.006l5.4-5.4V5.944a.765.765,0,1,0,1.529,0V.765A.764.764,0,0,0,14.179,0H9A.765.765,0,0,0,9,1.529Z" transform="translate(5192.496 146)"/>
</svg>
