<svg xmlns="http://www.w3.org/2000/svg" width="13.592" height="16.632" viewBox="0 0 13.592 16.632">
  <g id="apple" transform="translate(-27.875 0)">
    <path id="XMLID_229_" d="M28.577,74.49c-1.406,2.44-.512,6.143,1.043,8.388.776,1.122,1.562,2.13,2.638,2.13h.061a3.258,3.258,0,0,0,1.224-.326,3.353,3.353,0,0,1,1.45-.344,3.153,3.153,0,0,1,1.381.333,2.925,2.925,0,0,0,1.323.317c1.212-.023,1.957-1.11,2.613-2.069a9.171,9.171,0,0,0,1.145-2.345l0-.015a.136.136,0,0,0-.072-.167l-.01,0A3.475,3.475,0,0,1,39.272,77.2a3.577,3.577,0,0,1,1.69-2.99l.013-.008a.136.136,0,0,0,.039-.191,3.934,3.934,0,0,0-3.094-1.68c-.088-.009-.179-.013-.27-.013a5.394,5.394,0,0,0-1.942.485,3.121,3.121,0,0,1-.93.278,3.043,3.043,0,0,1-.962-.281,4.662,4.662,0,0,0-1.7-.431h-.043A4.159,4.159,0,0,0,28.577,74.49Z" transform="translate(0 -68.376)"/>
    <path id="XMLID_230_" d="M152.64,0a3.8,3.8,0,0,0-2.507,1.286,3.558,3.558,0,0,0-.9,2.638.136.136,0,0,0,.125.118c.058,0,.117.007.176.007A3.212,3.212,0,0,0,151.9,2.836a3.751,3.751,0,0,0,.882-2.714A.137.137,0,0,0,152.64,0Z" transform="translate(-114.719 0)"/>
  </g>
</svg>
