<?xml version="1.0" encoding="utf-8"?>
<!-- Generator: Adobe Illustrator 22.1.0, SVG Export Plug-In . SVG Version: 6.00 Build 0)  -->
<svg version="1.1" id="Layer_1" xmlns="http://www.w3.org/2000/svg" xmlns:xlink="http://www.w3.org/1999/xlink" x="0px" y="0px"
	 viewBox="0 0 28 28" style="enable-background:new 0 0 28 28;" xml:space="preserve">
<style type="text/css">
	.st0{fill:#03A9F4;}
</style>
<path id="path" class="st0" d="M20,17.6h-1.3l-0.5-0.5c1.7-1.8,2.6-4.2,2.6-6.7C20.8,4.7,16.1,0,10.4,0S0,4.7,0,10.4
	s4.7,10.4,10.4,10.4c2.5,0,4.9-0.9,6.7-2.6l0.5,0.5V20l8,8l2.4-2.4L20,17.6z M10.4,17.6c-4,0-7.2-3.2-7.2-7.2c0-4,3.2-7.2,7.2-7.2
	c4,0,7.2,3.2,7.2,7.2C17.6,14.4,14.4,17.6,10.4,17.6C10.4,17.6,10.4,17.6,10.4,17.6z"/>
</svg>
